<svg xmlns="http://www.w3.org/2000/svg" width="32" height="32" viewBox="0 0 32 32" fill="none">
  <path fill="#fff" d="M0 0h32v32H0z"/>
  <path fill="#FF4FAA" d="M0 0h32v10H0z"/>
  <path fill="#FDFDA3" d="M0 10h32v10H0z"/>
  <path fill="#5E91EB" d="M0 20h32v10H0z"/>
  <path fill="#000" d="M14.78 27.8c-2.74.2-4.76.02-6.07-.55a4.69 4.69 0 0 1-2.65-2.98c-.47-1.42-.81-3.67-1.03-6.73-.23-3.1-.22-5.43 0-6.96A5.09 5.09 0 0 1 7.2 7.02c1.2-.84 3.16-1.35 5.88-1.55 1.64-.12 3.34.15 5.1.79a10.1 10.1 0 0 1 4.57 3.39c1.3 1.64 2.04 3.8 2.24 6.48.18 2.57-.26 4.72-1.33 6.45a10.49 10.49 0 0 1-4.06 3.82c-1.63.82-3.23 1.3-4.8 1.4Zm-2.38-5.47c.69.04 1.18.05 1.48.02 1.5-.1 2.65-.6 3.42-1.46a4.47 4.47 0 0 0 1-3.44 3.73 3.73 0 0 0-1.42-2.88 4.96 4.96 0 0 0-3.5-.84c-.55.04-1.08.12-1.58.24l.6 8.36Z"/>
  <path fill="#000" d="m8.71 27.25.4-.92-.4.92Zm-2.65-2.98.95-.32-.95.32Zm-1.02-13.7-.99-.15.99.16Zm2.15-3.55.56.82-.56-.82Zm10.98-.76-.35.94h.01l.34-.94Zm4.57 3.39.79-.62-.79.62Zm.9 12.93.85.53-.84-.53ZM19.6 26.4l.45.9.01-.01-.46-.89Zm-7.2-4.07-.99.07.07.88.88.05.05-1Zm4.91-1.44-.75-.67.75.67Zm-.42-6.32-.62.79h.01l.6-.8Zm-5.08-.6-.24-.97-.82.2.06.84 1-.07Zm2.91 12.84c-2.7.2-4.53 0-5.6-.48l-.8 1.84c1.54.67 3.76.84 6.55.63l-.15-2Zm-5.6-.48a3.69 3.69 0 0 1-2.1-2.38l-1.9.63a5.68 5.68 0 0 0 3.2 3.59l.8-1.84Zm-2.1-2.38c-.43-1.3-.77-3.43-.99-6.48l-2 .14c.23 3.08.58 5.42 1.09 6.97l1.9-.63Zm-.99-6.48a33.5 33.5 0 0 1 0-6.74l-1.97-.3a35.24 35.24 0 0 0-.02 7.18l2-.14Zm0-6.73c.22-1.32.8-2.25 1.73-2.9L6.62 6.2a6.08 6.08 0 0 0-2.57 4.22l1.97.32Zm1.74-2.9c.97-.68 2.71-1.18 5.39-1.37l-.15-2c-2.77.2-4.96.74-6.38 1.73l1.14 1.64Zm5.39-1.37c1.48-.1 3.03.13 4.67.73l.7-1.88A13.18 13.18 0 0 0 13 4.47l.15 2Zm4.68.73a9.1 9.1 0 0 1 4.13 3.07l1.57-1.24a11.1 11.1 0 0 0-5.03-3.71l-.67 1.88Zm4.13 3.07c1.14 1.44 1.84 3.4 2.02 5.93l2-.14c-.21-2.83-1-5.2-2.45-7.03l-1.57 1.24Zm2.02 5.93c.17 2.42-.25 4.35-1.18 5.85l1.7 1.06c1.2-1.95 1.67-4.32 1.47-7.05l-1.99.14Zm-1.18 5.85a9.49 9.49 0 0 1-3.67 3.46l.92 1.78c1.8-.94 3.28-2.34 4.44-4.18l-1.69-1.06Zm-3.66 3.46c-1.53.77-3 1.2-4.43 1.3l.15 2c1.72-.13 3.45-.64 5.18-1.52l-.9-1.78Zm-6.8-2.18c.7.04 1.24.05 1.6.02l-.14-2c-.23.02-.66.02-1.35-.02l-.1 2Zm1.6.02a5.82 5.82 0 0 0 4.1-1.8l-1.49-1.33c-.55.62-1.41 1.04-2.75 1.14l.15 2Zm4.1-1.8a5.47 5.47 0 0 0 1.26-4.18l-2 .15c.1 1.22-.2 2.08-.75 2.7l1.5 1.33Zm1.26-4.18a4.72 4.72 0 0 0-1.83-3.6l-1.2 1.6c.59.43.96 1.1 1.04 2.15l1.99-.15Zm-1.81-3.6a5.94 5.94 0 0 0-4.18-1.04l.14 2c1.31-.1 2.2.16 2.81.63l1.23-1.59Zm-4.18-1.04c-.6.04-1.19.13-1.75.27l.47 1.94c.45-.1.92-.18 1.42-.22l-.14-1.99Zm-2.51 1.31.6 8.36 2-.14-.6-8.36-2 .14Z"/>
  <path fill="#fff" d="M16.78 24.8c-2.74.2-4.77.02-6.07-.55a4.69 4.69 0 0 1-2.65-2.98c-.47-1.42-.81-3.67-1.03-6.73-.23-3.1-.22-5.43 0-6.96A5.09 5.09 0 0 1 9.2 4.02c1.2-.84 3.16-1.35 5.88-1.55 1.64-.12 3.34.15 5.1.79a10.1 10.1 0 0 1 4.57 3.39c1.3 1.64 2.04 3.8 2.24 6.48.18 2.57-.26 4.72-1.33 6.45a10.49 10.49 0 0 1-4.06 3.82c-1.63.82-3.23 1.3-4.8 1.4Zm-2.38-5.47c.69.04 1.18.05 1.48.02 1.5-.1 2.65-.6 3.42-1.46a4.47 4.47 0 0 0 1-3.44 3.73 3.73 0 0 0-1.42-2.88 4.96 4.96 0 0 0-3.5-.84c-.55.04-1.08.12-1.58.24l.6 8.36Z"/>
  <path fill="#000" d="m10.71 24.25.4-.92-.4.92Zm-2.65-2.98.95-.32-.95.32ZM7.04 7.57l-.99-.15.99.16Zm2.15-3.55.56.82-.56-.82Zm10.98-.76-.35.94h.01l.34-.94Zm4.57 3.39.79-.62-.79.62Zm.9 12.93.85.53-.84-.53ZM21.6 23.4l.45.9.01-.01-.46-.89Zm-7.2-4.07-.99.07.07.88.88.05.05-1Zm4.91-1.44-.75-.67.75.67Zm-.42-6.32-.62.79h.01l.6-.8Zm-5.08-.6-.24-.97-.82.2.06.84 1-.07Zm2.91 12.84c-2.7.2-4.53 0-5.6-.48l-.8 1.84c1.54.67 3.76.84 6.55.63l-.15-2Zm-5.6-.48a3.69 3.69 0 0 1-2.1-2.38l-1.9.63a5.68 5.68 0 0 0 3.2 3.59l.8-1.84Zm-2.1-2.38c-.43-1.3-.77-3.43-.99-6.48l-2 .14c.23 3.08.58 5.42 1.09 6.97l1.9-.63Zm-.99-6.48a33.5 33.5 0 0 1 0-6.74l-1.97-.3a35.24 35.24 0 0 0-.02 7.18l2-.14Zm0-6.73c.22-1.32.8-2.25 1.73-2.9L8.62 3.2a6.08 6.08 0 0 0-2.57 4.22l1.97.32Zm1.74-2.9c.97-.68 2.71-1.18 5.39-1.37l-.15-2c-2.77.2-4.96.74-6.38 1.73l1.14 1.64Zm5.39-1.37c1.48-.1 3.03.13 4.67.73l.7-1.88A13.18 13.18 0 0 0 15 1.47l.15 2Zm4.68.73a9.1 9.1 0 0 1 4.13 3.07l1.57-1.24a11.1 11.1 0 0 0-5.03-3.71l-.67 1.88Zm4.13 3.07c1.14 1.44 1.84 3.4 2.02 5.93l2-.14c-.21-2.83-1-5.2-2.45-7.03l-1.57 1.24Zm2.02 5.93c.17 2.42-.25 4.35-1.18 5.85l1.7 1.06c1.2-1.95 1.67-4.32 1.47-7.05l-1.99.14Zm-1.18 5.85a9.49 9.49 0 0 1-3.67 3.46l.92 1.78c1.8-.94 3.28-2.34 4.44-4.18l-1.69-1.06Zm-3.66 3.46c-1.53.77-3 1.2-4.43 1.3l.15 2c1.72-.13 3.45-.64 5.18-1.52l-.9-1.78Zm-6.8-2.18c.7.04 1.24.05 1.6.02l-.14-2c-.23.02-.66.02-1.35-.02l-.1 2Zm1.6.02a5.82 5.82 0 0 0 4.1-1.8l-1.49-1.33c-.55.62-1.41 1.04-2.75 1.14l.15 2Zm4.1-1.8a5.47 5.47 0 0 0 1.26-4.18l-2 .15c.1 1.22-.2 2.08-.75 2.7l1.5 1.33Zm1.26-4.18a4.72 4.72 0 0 0-1.83-3.6l-1.2 1.6c.59.43.96 1.1 1.04 2.15l1.99-.15Zm-1.81-3.6a5.95 5.95 0 0 0-4.18-1.04l.14 2c1.31-.1 2.2.16 2.81.63l1.23-1.59Zm-4.2-1.04c-.6.04-1.19.13-1.75.27l.47 1.94c.45-.1.92-.18 1.42-.22l-.14-1.99Zm-2.51 1.31.6 8.36 2-.14-.6-8.36-2 .14ZM0 30h32v2H0z"/>
</svg>
