<svg xmlns="http://www.w3.org/2000/svg" width="652" height="671" fill="none">
    <path fill="#000" d="M218 294 70 344l192 60-44-110Z"/>
    <path fill="#FDFDA3" d="M205 280 56 330l192 61-43-111Z"/>
    <path fill="#000" fill-rule="evenodd" d="m539 616 27 10 10-28 27 10 10-27 34 12-5 12-21-7-10 27-27-10-10 27-27-9-8 21-12-5 12-33Z" clip-rule="evenodd"/>
    <path fill="#5E91EB" fill-rule="evenodd" d="m533 610 27 9 10-27 27 10 10-28 34 12-5 13-21-8-10 27-27-9-10 27-27-10-8 21-12-4 12-33Z" clip-rule="evenodd"/>
</svg>
