<svg class="book" width="28" height="32" fill="none" xmlns="http://www.w3.org/2000/svg"><path d="m3.67 2.24.2 28.67 23 .33V1H4.97l-1.3 1.24Z" fill="#fff"/><path d="M8.62 1.26H27v26.78M8.62 1.26v26.78m0-26.78H4.91c-.97.09-1.25.45-1.24 1.66v4.86m4.95 20.26H27m-18.38 0H6.15c-1.7 0-2.48.05-2.48 1.53M27 28.04v3.07H6.22c-1.86.04-2.48-.24-2.55-1.54m0 0V7.77m0 0C2.63 7.78 1 7.78 1 6.16c0-1.9 1.1-1.9 1.89-1.9h2.02c.43.03 1.3.44 1.3 1.9m-2.54 10.1c-1.04 0-2.67 0-2.67-1.63 0-1.9 1.1-1.9 1.89-1.9h2.02c.43.03 1.3.44 1.3 1.9m-2.54 9.97c-1.04 0-2.67 0-2.67-1.63 0-1.89 1.1-1.89 1.89-1.89h2.02c.43.02 1.3.43 1.3 1.89" stroke="#000" stroke-linecap="round" stroke-linejoin="round"/><path d="M12.59 10.5a3.49 3.49 0 0 0 0 4.93l4.93 4.93 4.93-4.93a3.49 3.49 0 0 0-4.93-4.94 3.49 3.49 0 0 0-4.93 0Z" fill="#EB9DFF" stroke="#000"/></svg>