<svg xmlns="http://www.w3.org/2000/svg" width="54" height="50" fill="none">
    <g class="thing">
        <path fill="#fff" d="m9.51 5.63.26 37.7 30.25.44V4h-28.8l-1.7 1.63Z" />
        <path stroke="#000" stroke-linecap="round" stroke-linejoin="round" stroke-width="2"
            d="M16.03 4.34H40.2v35.23M16.03 4.34v35.23m0-35.23h-4.89c-1.27.12-1.64.6-1.63 2.19v6.38m6.52 26.66H40.2m-24.17 0h-3.26c-2.23 0-3.26.06-3.26 2.01m30.69-2.01v4.02H12.86c-2.44.07-3.26-.3-3.35-2m0 0V12.9m0 0c-1.37 0-3.51 0-3.51-2.14C6 8.3 7.46 8.3 8.49 8.3h2.65c.57.02 1.72.56 1.72 2.48M9.5 24.05c-1.37 0-3.51 0-3.51-2.14 0-2.48 1.46-2.48 2.49-2.48h2.65c.57.03 1.72.56 1.72 2.48M9.5 35.02c-1.37 0-3.51 0-3.51-2.14 0-2.48 1.46-2.48 2.49-2.48h2.65c.57.03 1.72.56 1.72 2.48" />
    </g>
    <g class="bits">
        <path fill="#000"
            d="M33.86 7.98a6.36 6.36 0 0 0-3.37 8.34l4.98 11.72 11.71-4.98a6.36 6.36 0 1 0-4.98-11.71 6.36 6.36 0 0 0-8.34-3.37Z" />
        <path fill="#EB9DFF" stroke="#000"
            d="M33.99 4.98a6.36 6.36 0 0 0-3.37 8.34l4.97 11.72 11.72-4.98a6.36 6.36 0 1 0-4.98-11.71A6.36 6.36 0 0 0 34 4.98Z" />
        <path fill="#000"
            d="M19.8 18.23c-1 2.55.27 5.42 2.82 6.41l9.23 3.6L35.44 19a4.95 4.95 0 1 0-9.23-3.59c-2.55-.99-5.42.27-6.42 2.82Z" />
        <path fill="#EB9DFF" stroke="#000"
            d="M19.92 15.23c-.99 2.55.27 5.42 2.82 6.41l9.24 3.6L35.57 16a4.95 4.95 0 1 0-9.24-3.59c-2.55-.99-5.42.27-6.4 2.82Z" />
        <path fill="#000" fill-rule="evenodd" stroke="#000"
            d="m22.2 38.46 6.5 3.66 3.63-6.52 6.5 3.66 3.63-6.51 7.96 4.48-1.63 2.92-5.04-2.84-3.63 6.52-6.5-3.66-3.63 6.51-6.5-3.66-2.82 5.06-2.91-1.64 4.44-7.98Z"
            clip-rule="evenodd" />
        <path fill="#3CE4FA" fill-rule="evenodd" stroke="#000"
            d="m24.33 36.46 6.5 3.66 3.63-6.52 6.5 3.66 3.63-6.51 7.96 4.48-1.63 2.92-5.04-2.84-3.63 6.52-6.5-3.66-3.63 6.51-6.5-3.66-2.82 5.06-2.92-1.64 4.45-7.98Z"
            clip-rule="evenodd" />
    </g>
</svg>