<svg xmlns="http://www.w3.org/2000/svg" width="40" height="37" fill="none"><path fill="#000" stroke="#000" d="M9.42 6.33c-1.48-1.1-3.49-2.14-5.2-2.17a2.9 2.9 0 0 0-2.32.95c-.6.68-.9 1.72-.9 3.12a122.83 122.83 0 0 0 .68 8.32c.1.92.21 1.7.32 2.06a7 7 0 0 0 4.18 4.71c.75.32 1.55.53 2.37.64-1.57.7-2.68 1.62-3.26 2.74-1 1.92-.31 4.15 1.71 6.21 1.9 1.94 3.6 2.85 5.12 3 1.54.17 2.8-.47 3.8-1.4.99-.92 1.74-2.16 2.29-3.3.37-.77.66-1.51.87-2.1.22.59.5 1.33.88 2.1.55 1.14 1.3 2.38 2.29 3.3 1 .93 2.25 1.57 3.8 1.4 1.52-.15 3.22-1.06 5.11-3 2.03-2.06 2.71-4.29 1.72-6.2-.58-1.13-1.69-2.05-3.26-2.75a9.62 9.62 0 0 0 2.37-.64 7 7 0 0 0 4.18-4.7c.1-.37.22-1.15.32-2.08.11-.94.22-2.09.32-3.22.2-2.26.36-4.53.36-5.1 0-1.4-.3-2.43-.9-3.11a2.9 2.9 0 0 0-2.33-.95c-1.7.03-3.71 1.07-5.2 2.17a33.62 33.62 0 0 0-5.99 6.19 43.84 43.84 0 0 0-3.67 5.51 43.83 43.83 0 0 0-3.67-5.51 33.63 33.63 0 0 0-5.99-6.19Zm0 0-.3.4.3-.4Z"/><path fill="#fff" stroke="#000" d="M11.75 2.67C10.27 1.57 8.26.53 6.55.5a2.9 2.9 0 0 0-2.31.94c-.6.7-.9 1.73-.9 3.13 0 .56.15 2.82.35 5.08.1 1.14.2 2.29.32 3.23.1.93.21 1.7.32 2.07a7 7 0 0 0 4.18 4.71c.75.32 1.55.52 2.37.64-1.57.7-2.68 1.62-3.26 2.74-1 1.92-.31 4.14 1.72 6.21 1.9 1.93 3.59 2.85 5.11 3 1.55.16 2.81-.47 3.8-1.4 1-.92 1.74-2.16 2.29-3.3.37-.77.66-1.52.88-2.1.2.58.5 1.33.87 2.1.55 1.14 1.3 2.38 2.29 3.3 1 .93 2.26 1.56 3.8 1.4 1.52-.15 3.22-1.07 5.12-3 2.02-2.07 2.7-4.29 1.7-6.21-.57-1.12-1.68-2.05-3.25-2.74a9.62 9.62 0 0 0 2.37-.64 7 7 0 0 0 4.18-4.7c.1-.37.22-1.15.32-2.08.11-.94.23-2.09.33-3.23.2-2.26.35-4.52.35-5.08 0-1.4-.3-2.44-.9-3.13A2.9 2.9 0 0 0 36.27.5c-1.7.03-3.71 1.07-5.2 2.17a33.62 33.62 0 0 0-5.98 6.19 43.84 43.84 0 0 0-3.67 5.5 43.81 43.81 0 0 0-3.67-5.5 33.62 33.62 0 0 0-6-6.19Zm0 0-.3.4.3-.4Z"/></svg>
