<svg xmlns="http://www.w3.org/2000/svg" class="github" viewBox="0 0 24 24" fill="none">
  <ellipse cx="12.92" cy="10.83" fill="#000" rx="11.08" ry="10.83"/>
  <ellipse cx="11.5" cy="13" fill="#000" rx="11.5" ry="11"/>
  <path fill="#fff" fill-rule="evenodd" d="M12.92.56C10.43.5 8 1.34 6.1 2.93a10.2 10.2 0 0 0 3.69 17.63c.42 0 .63-.21.63-.42v-2.08C7.47 18.68 6.84 17 6.84 17c-.42-1.25-1.04-1.66-1.04-1.66-1.05-.63 0-.63 0-.63a3.05 3.05 0 0 1 1.67 1.04c.84 1.67 2.3 1.25 2.94.84 0-.63.42-1.04.63-1.25-2.31-.21-4.62-1.04-4.62-5a4.5 4.5 0 0 1 1.05-2.92c-.2-.2-.42-1.25 0-2.7 0 0 .84-.21 2.94 1.04a9.92 9.92 0 0 1 2.51-.21l2.52.2c1.89-1.24 2.72-1.04 2.72-1.04.63 1.46.21 2.5.21 2.71a4.5 4.5 0 0 1 1.05 2.92c0 3.96-2.3 4.79-4.61 5 .21.2.63.83.63 1.87v2.92c0 .2.2.42.63.42a10.3 10.3 0 0 0 5.78-4.33 10.15 10.15 0 0 0-2.1-13.3A10.31 10.31 0 0 0 12.93.56Z" clip-rule="evenodd"/>
</svg>
