<svg class="github" viewBox="0 0 39 39" fill="none" xmlns="http://www.w3.org/2000/svg"><ellipse cx="18.57" cy="20.89" rx="18.57" ry="18.11" fill="#000"/><ellipse cx="19.5" cy="18.11" rx="18.57" ry="18.11" fill="#000"/><path fill-rule="evenodd" clip-rule="evenodd" d="M19.5.93C15.32.83 11.25 2.24 8.04 4.9a16.93 16.93 0 0 0-3.5 22.23 17.2 17.2 0 0 0 9.69 7.24c.7 0 1.05-.35 1.05-.7v-3.48c-4.92 1.04-5.97-1.74-5.97-1.74-.7-2.1-1.76-2.79-1.76-2.79-1.76-1.04 0-1.04 0-1.04a5.11 5.11 0 0 1 2.81 1.74c1.4 2.78 3.87 2.09 4.92 1.4 0-1.05.7-1.75 1.06-2.1-3.87-.35-7.74-1.74-7.74-8.35 0-2.1.7-3.48 1.76-4.88-.35-.35-.7-2.09 0-4.52 0 0 1.4-.35 4.92 1.74 1.39-.3 2.8-.41 4.22-.35l4.22.35c3.16-2.1 4.57-1.74 4.57-1.74 1.05 2.43.35 4.17.35 4.52a7.5 7.5 0 0 1 1.76 4.88c0 6.61-3.87 8-7.74 8.35a4.5 4.5 0 0 1 1.06 3.14v4.87c0 .35.35.7 1.05.7a17.2 17.2 0 0 0 9.7-7.24A16.93 16.93 0 0 0 30.96 4.9 17.33 17.33 0 0 0 19.5.93Z" fill="#fff"/></svg>