<svg class="hammer" width="29" height="28" fill="none" xmlns="http://www.w3.org/2000/svg"><rect x="3.14" y="11.62" width="6.62" height="3.05" rx="1" transform="rotate(44.37 3.14 11.62)" fill="#fff" stroke="#000"/><rect x="10.05" y="4.49" width="6.62" height="6.18" rx="1" transform="rotate(44.37 10.05 4.5)" fill="#fff" stroke="#000"/><path d="M15.31 12.41a1 1 0 0 1 1.41-.02c2.22 2.17 8.99 8.76 10.56 10.33 1.7 1.7.22 3.23-.07 3.5l-.1.08c-.25.24-1.58 1.33-3.19-.28-1.48-1.48-8.26-8.09-10.49-10.26a1 1 0 0 1 0-1.41l1.88-1.94Z" fill="#F7AF90" stroke="#000"/><path d="M5.55 11.3c.7-.65.59-1.85.41-2.34l4.4 4.29c-.5-.17-1.35-.06-2 .68-.67.73-.85 1.95-.7 2.43l-4.7-4.52c.48.14 1.88.13 2.59-.53ZM15.08 2.66a5.76 5.76 0 0 0-3.9 2.9l2.7 2.65c1.81-2.7 3.19-3.62 5.88-4.83a6.98 6.98 0 0 0-4.68-.72ZM15.68 12.13l-1.92-1.88-2.51 2.57 1.91 1.88 2.52-2.57Z" fill="#fff" stroke="#000"/></svg>