<svg xmlns="http://www.w3.org/2000/svg" width="52" height="51" fill="none">
    <g class="thing">
        <rect width="10.97" height="5.06" x="4.54" y="19.25" fill="#fff" stroke="#000" stroke-width="2"
            rx="1" transform="rotate(44.37 4.54 19.25)" />
        <rect width="10.97" height="10.24" x="15.99" y="7.44" fill="#fff" stroke="#000" stroke-width="2"
            rx="1" transform="rotate(44.37 16 7.44)" />
        <path fill="#F7AF90" stroke="#000" stroke-width="2"
            d="M25.18 20.1a1 1 0 0 1 1.4-.02c3.09 3 15.24 14.84 17.96 17.56 2.9 2.9.24 5.48-.15 5.83l-.09.08c-.33.32-2.59 2.3-5.32-.43a4236.16 4236.16 0 0 0-17.85-17.46 1 1 0 0 1-.01-1.41l4.06-4.15Z" />
        <path fill="#fff" stroke="#000" stroke-width="2"
            d="M8.54 18.74c1.17-1.1.97-3.08.68-3.9l7.3 7.1c-.84-.27-2.25-.09-3.34 1.13-1.1 1.23-1.4 3.24-1.14 4.03l-7.78-7.49c.77.24 3.11.22 4.28-.87ZM24.33 4.4a9.55 9.55 0 0 0-6.48 4.82l4.48 4.38c3.01-4.49 5.3-6 9.75-8a11.57 11.57 0 0 0-7.75-1.2ZM25.32 20.1l-3.18-3.11-4.16 4.25 3.17 3.11 4.17-4.25Z" />
    </g>
    <g class="bits">
        <path fill="#000" stroke="#000" d="m49.16 24.36-8.95 2.81L36 13.82 44.94 11z" />
        <path fill="#EB9DFF" stroke="#000" d="m51.16 21.36-8.95 2.81L38 10.82 46.94 8z" />
        <ellipse cx="17" cy="43.5" fill="#000" stroke="#000" rx="7" ry="6.5" />
        <ellipse cx="16" cy="41.5" fill="#3CE4FA" stroke="#000" rx="7" ry="6.5" />
    </g>
</svg>