<svg xmlns="http://www.w3.org/2000/svg" width="60" height="30" fill="none">
    <path fill="#fff"
        d="M6.6 25.5 6 4.8l6-.5.9 2.9L27 .8l5 1.4H40L54 3 58.7 5l-.6 3-5.3 1.6-10.6.5 3.4 14.9-4.4 3.5-5.4.4-3.2-1.9-8.2-.6-7-3.4-4.4-.6-.8 3H6.6Z" />
    <path fill="#060709" fill-rule="evenodd"
        d="M26.8 0c-1.8.2-3.5 1-6.4 2.7-2.6 1.8-4.7 2.7-6.1 2.7-.5 0-.7-.3-.7-1 0-1.4-.1-1.4-1.4-1.4-4 .1-8 .4-12 .8L0 27.1c.2.7.2.7 2.9 1.1l3.2.4c1.1.1 1.3.1 1.8-.8.4-1 .6-1 1.7-1.2l2.4-.1c1.5 0 1.5 0 1.6-1.6l.2-1.4c.6-.5 2.9.1 6 1.9 2.3 1.4 5 2.2 7.8 2.2l1.6.2c3.5.1 3.2 0 4 .6.7.6 1 1 1.8 1.1 1.6.7 5 .3 7.2-.5 4.2-1.7 5.6-4.6 3.7-7.3-.7-.8-.7-1-.3-1.6l.1-1.6c0-1.3-.3-1.9-1.6-2.9-.5-.3-.6-.6-.3-1 .2-.9 0-1.8-.3-2.6-.3-.7-.3-.8-.2-1h3c2.3 0 4.5-.1 6.6-.3 4.7-.6 7-2 7-4.2 0-1.7-1.3-3-4-4a31 31 0 0 0-9.7-1.4C41.1 1 35.9.8 30.8.8c-1.8-.6-2.7-.8-4-.8ZM28 2c3.2.6 7.2 3.7 9.3 7.6.8 1.4.6 2-.3 2.7-1.5 1-3.2.8-5.2-.2-1.1-.6-3.2-2.2-4.8-3.6-.6-.7-.8-.8-1.1-.5-.5.5-.5.5 1.4 3 .8 1.4.8 1.4-.1 2.4a8.6 8.6 0 0 1-4.5 2c-.8 0-2.3-.2-3.9-.7-.8-.2-1-.2-1.3.1-.3.4.2.8 1.7 1.6a9 9 0 0 0 5 .7c1-.2 1.2-.2 1.5 1 .5 1.7 1.3 2.5 3 2.8 1 .2 1 .3 1.2 1.3.3 1.3.8 2 1.6 2.5l.6.5v.2c0 .3-.1.6-.4.6L27 26c-2.7-.4-4.3-.8-6.7-2.3-2-1.3-3.9-1.9-5.8-2.2-.6-.2-1-.3-1-.7V7.8c.2-.1.4-.3 1-.3a15 15 0 0 0 6.1-2.7c3.2-2.2 5.3-3 7.4-2.7Zm15.7.9 5 .1c2 .2 5.1.8 6.5 1.3 3.3 1.1 3 3.4-.4 4.2-4.5.4-9 .6-13.5.6-1.6-.2-1.6-.2-2.4-1.1L35.6 4c-1.1-1-1-1.2 1-1.2h7.2ZM11.1 5c.1 0 .5.2.5.5v17.7c-.2.5-.2.5-1.8.6-2 0-2 0-2-1.4 0-5.5-.3-11-.6-16.6 0-.6.2-.8 1-.8H11Zm29.5 6.7c.8.3 1.3 1.4 1 2-.7 1.8-7.3 5-11 5.5-3.3.3-4.5-3.2-1.6-5 1-.4 1.5-.6 2.6-.3 3.9 1.2 6.4.5 8-1.7.5-.7.7-.8 1-.5Zm1.6 5.1c1 .3 1.6 1.3 1.3 2.2-.5 2.3-5.5 4.5-9.3 4.4-1.3 0-2.1-.5-2.4-1.6-.2-.8-.2-1 1.9-1.8l5.8-2.2c2.4-1.1 2.2-1.1 2.7-1Zm1.6 5.8c.8.3 1.1 1.7.5 2.5-2 2.7-8.2 4-10 2-1-1-.1-1.7 3-2.5 1.7-.4 3.1-1 4.7-1.7 1.3-.5 1.5-.5 1.8-.3Z"
        clip-rule="evenodd" />
</svg>
