<svg class="masto" width="36" height="40" fill="none" xmlns="http://www.w3.org/2000/svg"><path d="M33.33 24.86c-.54 2.53-4.54 5.47-9.07 6-2.4.27-4.8.53-7.2.4-4.13-.27-7.33-.93-7.33-.93v1.06c.53 4 4 4.27 7.33 4.4 3.34.14 6.27-.8 6.27-.8l.13 2.93s-2.27 1.34-6.4 1.47c-2.26.13-5.2 0-8.4-.93-7.2-1.87-8.4-9.47-8.66-17.2V15C0 7 5.2 4.73 5.2 4.73 7.86 3.53 12.26 3 16.93 3h.13c4.67 0 9.2.53 11.73 1.73C28.8 4.73 34 7 34 15c0 0 .13 5.86-.66 9.86Z" fill="#000"/><path d="M23.54 32.93c.54-.1.99-.2 1.32-.29l.09 1.99a9.67 9.67 0 0 1-1.3.5c-1.04.34-2.59.7-4.6.76h-.02c-2.22.13-5.1 0-8.23-.91h-.01c-3.41-.9-5.4-3.12-6.6-6.1C3 25.85 2.64 22.1 2.5 18.24V12c0-3.88 1.26-6.34 2.48-7.81a8.5 8.5 0 0 1 2.41-2h.01C9.97 1.03 14.28.5 18.93.5h.13c4.66 0 9.1.54 11.52 1.68l.01.01a1.45 1.45 0 0 1 .19.1A8.5 8.5 0 0 1 33 4.18c1.22 1.47 2.48 3.93 2.48 7.8v.08a37.85 37.85 0 0 1 .01.9c0 .61 0 1.47-.04 2.44a41.99 41.99 0 0 1-.62 6.35c-.23 1.08-1.24 2.35-2.83 3.44a13.25 13.25 0 0 1-5.8 2.16c-2.41.27-4.77.53-7.12.4a61.15 61.15 0 0 1-7.22-.92h-.03l-.6-.13V28.46a4.7 4.7 0 0 0 2.91 4.04c1.45.63 3.24.73 4.9.8 1.7.06 3.31-.15 4.49-.37Z" fill="#fff" stroke="#000"/><path d="M29.86 12.53v9.6h-3.73v-9.2c0-2-.8-3.07-2.54-3.07-1.73 0-2.66 1.2-2.66 3.6v5.07h-3.87v-5.07c0-2.4-.8-3.6-2.66-3.6-1.6 0-2.54 1.07-2.54 3.07v9.2H8.13v-9.6A7.5 7.5 0 0 1 9.6 7.86a5.62 5.62 0 0 1 4.13-1.73c1.87 0 3.33.8 4.4 2.27l.93 1.6.94-1.6a4.88 4.88 0 0 1 4.4-2.27c1.6 0 2.93.67 4 1.73 1.06 1.2 1.46 2.8 1.46 4.67Z" fill="#000"/></svg>