<svg class="microphone" width="24" height="28" fill="none" xmlns="http://www.w3.org/2000/svg"><path d="m5.13 21.34-2.3-2.1 9.4-11.37 1.72 2.51 2.89 1.5-11.71 9.46Z" fill="#fff"/><circle cx="17.72" cy="6.4" r="5.4" fill="#3CE4FA" stroke="#000"/><path d="M14.41 2.09c-.42.85-.5 3.38 2.18 5.63 2.67 2.25 4.33 2.23 5.33 1.99M12.5 7.16c-2.43 2.97-7.8 9.45-8.86 10.8-.76.98-.88 1.61.21 2.56 1.1.94 1.62.8 2.6 0 1.48-1.2 7.68-6.5 10.44-8.94" stroke="#000"/><path d="M4 20.75a.5.5 0 1 0-.64-.77l.64.77Zm-2.16 1.12-.32-.39a.5.5 0 0 0-.05.05l.37.34Zm8.34 4.69a.5.5 0 0 0 .8-.6l-.8.6Zm-6.82-6.58-1.84 1.5.64.78L4 20.76l-.64-.78Zm-1.89 1.55a3.35 3.35 0 0 0 .12 4.84c1.19 1.19 3.2 1.68 4.82.27l-.66-.76c-1.12.99-2.54.7-3.45-.21a2.65 2.65 0 0 1-.8-1.63c-.04-.59.14-1.22.7-1.83l-.73-.68Zm4.94 5.1c.63-.55 1.18-.8 1.63-.9a2 2 0 0 1 1.14.1 2.45 2.45 0 0 1 1 .73l.4-.3.4-.3v-.01a1.8 1.8 0 0 0-.1-.12 3.42 3.42 0 0 0-1.34-.94 3 3 0 0 0-1.7-.13 4.6 4.6 0 0 0-2.09 1.12l.66.76Z" fill="#000"/></svg>