<svg xmlns="http://www.w3.org/2000/svg" width="58" height="53" fill="none">
    <g class="thing">
        <path fill="#fff" d="m19.49 41.43-3.88-3.56L31.5 18.62l2.92 4.26 4.9 2.54-19.82 16Z" />
        <circle cx="40.79" cy="16.15" r="9.15" fill="#3CE4FA" stroke="#000" stroke-width="2" />
        <path stroke="#000" stroke-width="2"
            d="M35.2 8.84c-.72 1.44-.84 5.72 3.68 9.53 4.53 3.81 7.33 3.77 9.02 3.37M31.96 17.42c-4.1 5.04-13.21 16-14.99 18.3-1.28 1.64-1.48 2.71.36 4.31 1.84 1.6 2.73 1.37 4.4 0C24.23 38 34.71 29.04 39.4 24.91" />
        <path fill="#000"
            d="M17.67 40.55A1 1 0 1 0 16.4 39l1.27 1.55Zm-3.75 1.77-.63-.78a1 1 0 0 0-.1.1l.73.68Zm14 8.02a1 1 0 1 0 1.6-1.18l-1.6 1.18ZM16.4 39l-3.11 2.54 1.26 1.55 3.12-2.54L16.4 39Zm-3.2 2.63a5.81 5.81 0 0 0-1.68 4.51c.12 1.5.85 2.88 1.88 3.91 2.04 2.04 5.55 2.92 8.36.45L20.44 49c-1.82 1.6-4.13 1.14-5.63-.36a4.33 4.33 0 0 1-1.3-2.66A3.82 3.82 0 0 1 14.65 43l-1.46-1.37Zm8.56 8.87a5.98 5.98 0 0 1 2.69-1.49 3.24 3.24 0 0 1 1.84.15 3.98 3.98 0 0 1 1.62 1.17v.01c.01 0 .01 0 0 0l.81-.6.8-.58v-.01l-.01-.02a3.58 3.58 0 0 0-.17-.2A5.94 5.94 0 0 0 27 47.28a5.23 5.23 0 0 0-2.96-.24A7.94 7.94 0 0 0 20.44 49l1.32 1.5Z" />
    </g>
    <g class="bits">
        <path fill="#000" stroke="#000"
            d="M5.5 11 20 22.5V3L5.5 11ZM41 49.5l-4-13h18.5L41 49.5ZM3.5 32.5 1 24l13.5 4.5-11 4Z" />
        <path fill="#EB9DFF" stroke="#000" d="M6.5 9 21 20.5V1L6.5 9Z" />
        <path fill="#FDFDA3" stroke="#000" d="m42 46.5-4-13h18.5L42 46.5Z" />
        <path fill="#fff" stroke="#000" d="M4.5 30.5 2 22l13.5 4.5-11 4Z" />
    </g>
</svg>