<svg xmlns="http://www.w3.org/2000/svg" width="26" height="24" fill="none">
  <g stroke="#000">
    <path fill="#000" d="M20.54 4.08h.02a3.27 3.27 0 0 1 2.32 2.32c.29 1.07.44 2.8.51 4.32a63.69 63.69 0 0 1 .08 2.66v.12a27.7 27.7 0 0 1-.01.74c-.01.5-.03 1.17-.07 1.92a24.03 24.03 0 0 1-.5 4.31v.01l-.01.01a3.27 3.27 0 0 1-2.33 2.3v.01c-1.07.28-3.18.43-5.09.5a100.37 100.37 0 0 1-3.4.08h-.16a47.1 47.1 0 0 1-.96-.01c-.64 0-1.5-.03-2.45-.06-1.9-.08-4.02-.23-5.08-.51H3.4a3.27 3.27 0 0 1-2.32-2.32c-.28-1.07-.43-2.8-.5-4.32A63.53 63.53 0 0 1 .5 13.5v-.12a35.9 35.9 0 0 1 0-.74l.07-1.92c.08-1.51.23-3.25.51-4.31v-.02a3.27 3.27 0 0 1 2.34-2.3v-.01c1.06-.28 3.18-.43 5.08-.5a100.46 100.46 0 0 1 3.41-.08h.07V3v.5h.07a65.27 65.27 0 0 1 .97 0l2.44.07c1.9.08 4.02.23 5.08.51Zm-3.82 9.79.75-.44-.75-.43-7.8-4.47-.74-.43v10.67l.74-.43 7.8-4.47Z"/>
    <path fill="#FF4FAA" d="M22.54 1.08h.02a3.27 3.27 0 0 1 2.32 2.32c.29 1.07.44 2.8.51 4.32a63.68 63.68 0 0 1 .08 2.66v.12a27.7 27.7 0 0 1-.01.74c-.01.5-.03 1.17-.07 1.92a24.03 24.03 0 0 1-.5 4.31v.01l-.01.01a3.27 3.27 0 0 1-2.33 2.3v.01c-1.07.28-3.18.43-5.09.5a100.37 100.37 0 0 1-3.4.08h-.16a47.1 47.1 0 0 1-.96-.01c-.64 0-1.5-.03-2.45-.06-1.9-.08-4.02-.23-5.08-.51H5.4a3.27 3.27 0 0 1-2.32-2.32c-.28-1.07-.43-2.8-.5-4.32a63.51 63.51 0 0 1-.08-2.66v-.12a36.68 36.68 0 0 1 0-.74l.07-1.92c.08-1.51.23-3.25.51-4.31v-.02a3.27 3.27 0 0 1 2.34-2.3v-.01C6.48.8 8.6.65 10.5.58A100.45 100.45 0 0 1 13.91.5h.07V0v.5h.07a61.3 61.3 0 0 1 .97 0l2.44.07c1.9.08 4.02.23 5.08.51Zm-3.82 9.79.75-.44-.75-.43-7.8-4.47-.74-.43v10.67l.74-.43 7.8-4.47Z"/>
  </g>
</svg>
